<?xml version="1.0" encoding="UTF-8"?>
<svg version="1.1" xmlns="http://www.w3.org/2000/svg" width="190" height="190">
<path d="M0 0 C62.7 0 125.4 0 190 0 C190 62.7 190 125.4 190 190 C127.3 190 64.6 190 0 190 C0 127.3 0 64.6 0 0 Z " fill="#1876B3" transform="translate(0,0)"/>
<path d="M0 0 C52.14 0 104.28 0 158 0 C158 62.7 158 125.4 158 190 C105.53 190 53.06 190 -1 190 C2.02206205 187.73345346 4.84182007 185.85472655 8.09375 183.98828125 C9.61742187 183.11139648 9.61742187 183.11139648 11.171875 182.21679688 C12.27015625 181.58837891 13.3684375 180.95996094 14.5 180.3125 C15.66157426 179.64538409 16.82303029 178.9780623 17.984375 178.31054688 C21.65385818 176.20284526 25.32648559 174.10066611 29 172 C29.58894043 171.66321228 30.17788086 171.32642456 30.78466797 170.97943115 C36.03012783 167.98033474 41.27693618 164.98360097 46.52441406 161.98803711 C64.00249502 152.00862352 81.42531168 141.93518748 98.80126953 131.77905273 C103.89402671 128.80423989 108.99594048 125.84924638 114.125 122.9375 C116.41816003 121.62752878 118.70979165 120.31510874 121 119 C121.88059082 118.49549316 122.76118164 117.99098633 123.66845703 117.47119141 C126.68024069 115.74002432 129.68437741 113.99614202 132.6875 112.25 C133.65768066 111.6943335 134.62786133 111.13866699 135.62744141 110.56616211 C136.53800293 110.03385986 137.44856445 109.50155762 138.38671875 108.953125 C139.20358154 108.48036133 140.02044434 108.00759766 140.86206055 107.52050781 C144.19711215 105.14861089 145.71264408 102.86206777 147 99 C147.27052483 96.91849427 147.27052483 96.91849427 147.3125 94.6875 C147.34988281 93.94886719 147.38726562 93.21023437 147.42578125 92.44921875 C146.64386571 87.951411 144.62047642 85.15362907 140.97631836 82.55932617 C138.45743402 81.0470587 135.90220631 79.63745001 133.3125 78.25 C131.40050882 77.19236897 129.4890567 76.13376285 127.578125 75.07421875 C126.1559668 74.29377197 126.1559668 74.29377197 124.70507812 73.49755859 C120.95068808 71.41909031 117.253011 69.25181666 113.5625 67.0625 C112.56343628 66.47287476 112.56343628 66.47287476 111.54418945 65.87133789 C108.45166746 64.04571118 105.36232439 62.21473478 102.27294922 60.38378906 C100.32274397 59.22803896 98.37230071 58.07269038 96.42163086 56.91772461 C94.52979717 55.79735816 92.63863915 54.67584967 90.74829102 53.55297852 C85.89720211 50.67926715 81.01899039 47.87190782 76.08105469 45.15014648 C72.99404147 43.44403207 69.93546356 41.69081796 66.875 39.9375 C65.73804687 39.28652344 64.60109375 38.63554688 63.4296875 37.96484375 C62.29789063 37.31644531 61.16609375 36.66804688 60 36 C59.41669922 35.67 58.83339844 35.34 58.23242188 35 C54.34537516 32.79719734 50.53733622 30.49446412 46.75 28.125 C41.83867175 25.07549171 36.84957456 22.22955741 31.75390625 19.5 C27.73334907 17.31007949 23.79806038 14.98012594 19.8515625 12.66015625 C17.33554371 11.19535079 14.80284031 9.77423721 12.25 8.375 C8.08508563 6.07554088 3.88560397 3.75274396 0 1 C0 0.67 0 0.34 0 0 Z " fill="#FDFEFE" transform="translate(32,0)"/>
<path d="M0 0 C7.59 0 15.18 0 23 0 C18 4 18 4 16 4 C13.53934195 8.75727223 12.87152681 12.32293352 12.85282898 17.69158936 C12.84731395 18.71708102 12.84731395 18.71708102 12.8416875 19.76328969 C12.83065456 22.0593231 12.8268075 24.35531124 12.82299805 26.65136719 C12.8167331 28.2956049 12.81008628 29.93984119 12.80308533 31.58407593 C12.78204642 36.98833226 12.77168321 42.39258887 12.76171875 47.796875 C12.75767115 49.65746323 12.75355423 51.5180513 12.74936867 53.37863922 C12.73031749 62.11970648 12.71608622 70.86076529 12.7077567 79.60184932 C12.69798368 89.69111866 12.67166218 99.78016864 12.63125581 109.86936069 C12.6010942 117.66819404 12.58628778 125.46696452 12.58297569 133.26585507 C12.58062527 137.92355915 12.57166591 142.58102885 12.54651451 147.23867035 C12.52322794 151.6217891 12.51900285 156.00451928 12.52927589 160.38768387 C12.52977122 161.99409147 12.5234516 163.60051823 12.50971985 165.20686722 C12.49198296 167.40520013 12.49911423 169.60214114 12.51225281 171.80047607 C12.50986445 173.02901684 12.5074761 174.2575576 12.50501537 175.52332687 C13.13241509 179.93005712 14.53806237 182.30789411 17 186 C18.813697 187.40183436 18.813697 187.40183436 20.75 187.9375 C21.8225 188.288125 22.895 188.63875 24 189 C24 189.33 24 189.66 24 190 C16.08 190 8.16 190 0 190 C0 127.3 0 64.6 0 0 Z " fill="#FDFEFD" transform="translate(0,0)"/>
<path d="M0 0 C2.31 0 4.62 0 7 0 C7 2.31 7 4.62 7 7 C11.29170653 8.20663619 15.47286361 8.13233957 19.89941406 8.11352539 C21.24628296 8.11374443 21.24628296 8.11374443 22.62036133 8.1139679 C25.58547387 8.11327176 28.55052344 8.10549329 31.515625 8.09765625 C33.57257045 8.09579101 35.62951635 8.09436761 37.6864624 8.09336853 C43.09844185 8.0895517 48.51039444 8.07972851 53.92236328 8.06866455 C59.44563432 8.05843252 64.96890971 8.05386707 70.4921875 8.04882812 C81.3281368 8.03810552 92.16406616 8.02103907 103 8 C103 5.36 103 2.72 103 0 C107.70688824 1.61379025 111.53203875 3.76310666 114.3125 8 C115 10 115 10 115 14 C79.36 14 43.72 14 7 14 C1.375 3.875 1.375 3.875 0 0 Z " fill="#05C1F3" transform="translate(65,80)"/>
<path d="M0 0 C3.95371977 2.0384763 7.6070023 4.45230696 11.30175781 6.9140625 C13.98795678 8.63174695 16.80062426 10.08657918 19.625 11.5625 C26.69290601 15.30231435 33.35180274 19.5678685 40 24 C34.72 24 29.44 24 24 24 C24 21.36 24 18.72 24 16 C18.72 16 13.44 16 8 16 C7.67 13.36 7.34 10.72 7 8 C5.7625 8 4.525 8 3.25 8 C0.5 8 -2.25 8 -5 8 C-5.99 8.33 -6.98 8.66 -8 9 C-10.00875442 8.72428861 -12.01178687 8.39764263 -14 8 C-16.48104242 12.78158977 -16.24062078 17.22903604 -16.16015625 22.47265625 C-16.15495468 23.39155136 -16.14975311 24.31044647 -16.14439392 25.25718689 C-16.1266276 28.1924541 -16.09552235 31.12736789 -16.0625 34.0625 C-16.02572233 37.90752576 -15.99535924 41.75252138 -15.97265625 45.59765625 C-15.96711227 46.51956757 -15.9615683 47.44147888 -15.95585632 48.3913269 C-15.94317628 54.1805715 -16.18104449 59.87716616 -16.77075195 65.64038086 C-17.08371135 68.86162958 -17.09767032 72.01433036 -17.0625 75.25 C-17.04896484 76.89742187 -17.04896484 76.89742187 -17.03515625 78.578125 C-17.02355469 79.37734375 -17.01195312 80.1765625 -17 81 C-17.99 80.67 -18.98 80.34 -20 80 C-20.09286954 71.12448297 -20.1638505 62.24913439 -20.20724869 53.37323666 C-20.22808259 49.25133482 -20.25632261 45.12976654 -20.30175781 41.00805664 C-20.34536665 37.02690435 -20.36916865 33.04607197 -20.37950897 29.06469917 C-20.38687351 27.54929128 -20.4012548 26.03389998 -20.42292023 24.51862907 C-20.62666434 9.67218246 -20.62666434 9.67218246 -16 4 C-11.20779512 0.05159971 -6.11477185 -1.53333945 0 0 Z " fill="#06C1F2" transform="translate(32,0)"/>
<path d="M0 0 C0.66 0.33 1.32 0.66 2 1 C1.34 2.32 0.68 3.64 0 5 C1.32 5.33 2.64 5.66 4 6 C2.35 6 0.7 6 -1 6 C-3.48104242 10.78158977 -3.24062078 15.22903604 -3.16015625 20.47265625 C-3.15495468 21.39155136 -3.14975311 22.31044647 -3.14439392 23.25718689 C-3.1266276 26.1924541 -3.09552235 29.12736789 -3.0625 32.0625 C-3.02572233 35.90752576 -2.99535924 39.75252138 -2.97265625 43.59765625 C-2.96711227 44.51956757 -2.9615683 45.44147888 -2.95585632 46.3913269 C-2.94317628 52.1805715 -3.18104449 57.87716616 -3.77075195 63.64038086 C-4.08371135 66.86162958 -4.09767032 70.01433036 -4.0625 73.25 C-4.04896484 74.89742187 -4.04896484 74.89742187 -4.03515625 76.578125 C-4.02355469 77.37734375 -4.01195312 78.1765625 -4 79 C-4.99 78.67 -5.98 78.34 -7 78 C-7.09286954 69.12448297 -7.1638505 60.24913439 -7.20724869 51.37323666 C-7.22808259 47.25133482 -7.25632261 43.12976654 -7.30175781 39.00805664 C-7.34536665 35.02690435 -7.36916865 31.04607197 -7.37950897 27.06469917 C-7.38687351 25.54929128 -7.4012548 24.03389998 -7.42292023 22.51862907 C-7.62703899 7.64488311 -7.62703899 7.64488311 -3 2 C-2.01 1.34 -1.02 0.68 0 0 Z " fill="#07B1E9" transform="translate(19,2)"/>
<path d="M0 0 C6.43284774 3.08833619 12.62914789 6.46101002 18.765625 10.1015625 C21.07686176 11.45815799 23.39239807 12.78497293 25.734375 14.0859375 C26.36118164 14.43615967 26.98798828 14.78638184 27.63378906 15.1472168 C29.40989967 16.13727531 31.18924227 17.12152923 32.96875 18.10546875 C35.7538992 19.846187 37.80671478 21.57555972 40 24 C38.37509046 24.02698189 36.75005367 24.04638757 35.125 24.0625 C33.76761719 24.07990234 33.76761719 24.07990234 32.3828125 24.09765625 C30 24 30 24 28 23 C25.90178785 23.39938767 25.90178785 23.39938767 24 24 C24 21.36 24 18.72 24 16 C19.38 16 14.76 16 10 16 C10 14.68 10 13.36 10 12 C9.01 12.495 9.01 12.495 8 13 C8 11.35 8 9.7 8 8 C5.36 8 2.72 8 0 8 C0 5.36 0 2.72 0 0 Z " fill="#09C1F0" transform="translate(72,24)"/>
<path d="M0 0 C2.31 0.33 4.62 0.66 7 1 C7 2.66666667 7 4.33333333 7 6 C6.47905762 6.29543701 5.95811523 6.59087402 5.42138672 6.89526367 C2.90479796 8.32403488 0.3898733 9.75571149 -2.125 11.1875 C-3.05755615 11.71690186 -3.9901123 12.24630371 -4.95092773 12.79174805 C-10.06004107 15.70436439 -15.12995048 18.66652949 -20.15234375 21.7265625 C-21.14153809 22.32573486 -22.13073242 22.92490723 -23.14990234 23.54223633 C-25.06929888 24.70883685 -26.98259068 25.88555008 -28.88916016 27.07299805 C-30.19892822 27.86637573 -30.19892822 27.86637573 -31.53515625 28.67578125 C-32.302229 29.14927002 -33.06930176 29.62275879 -33.85961914 30.1105957 C-36.38059688 31.15815153 -37.48569671 30.94272998 -40 30 C-40 28.02 -40 26.04 -40 24 C-38.9275 24.04125 -37.855 24.0825 -36.75 24.125 C-33.23418706 24.00780624 -31.92287789 23.67021593 -29 22 C-27.33333333 22 -25.66666667 22 -24 22 C-24 20.02 -24 18.04 -24 16 C-21.36 16 -18.72 16 -16 16 C-16 14.68 -16 13.36 -16 12 C-13.36 11.67 -10.72 11.34 -8 11 C-8.33 10.01 -8.66 9.02 -9 8 C-6.36 8 -3.72 8 -1 8 C-0.67 5.36 -0.34 2.72 0 0 Z " fill="#2E3577" transform="translate(80,152)"/>
<path d="M0 0 C5.13108726 1.46830491 9.29094576 3.75670312 13.8125 6.5 C15.30718767 7.39340317 16.80198275 8.28662667 18.296875 9.1796875 C19.06451172 9.64084961 19.83214844 10.10201172 20.62304688 10.57714844 C24.5884824 12.95087053 28.57646482 15.28609729 32.5625 17.625 C34.00140619 18.47117716 35.44021807 19.31751472 36.87890625 20.1640625 C37.90886719 20.76992187 38.93882812 21.37578125 40 22 C36.49314042 22.95611549 33.39428019 23.10211174 29.75 23.0625 C28.67234375 23.05347656 27.5946875 23.04445313 26.484375 23.03515625 C25.66453125 23.02355469 24.8446875 23.01195313 24 23 C24 20.36 24 17.72 24 15 C23.11248047 15.03480469 23.11248047 15.03480469 22.20703125 15.0703125 C17.66198041 15.17411464 14.14059941 15.13708357 10 13 C9.34 13.66 8.68 14.32 8 15 C8 12.03 8 9.06 8 6 C5.69 6.33 3.38 6.66 1 7 C0 2.25 0 2.25 0 0 Z " fill="#0CC2F0" transform="translate(128,57)"/>
<path d="M0 0 C1.45792884 -0.05399736 2.91642712 -0.09279177 4.375 -0.125 C5.18710938 -0.14820312 5.99921875 -0.17140625 6.8359375 -0.1953125 C9 0 9 0 11 2 C4.60962212 5.79152004 -1.78769308 9.57103732 -8.19091797 13.34082031 C-10.62388627 14.77784904 -13.04953547 16.22615228 -15.47265625 17.6796875 C-16.71065858 18.41193011 -17.94891556 19.14374246 -19.1875 19.875 C-20.25355469 20.51179688 -21.31960937 21.14859375 -22.41796875 21.8046875 C-25 23 -25 23 -28 22 C-28 20.02 -28 18.04 -28 16 C-24.7 16 -21.4 16 -18 16 C-18.33 15.01 -18.66 14.02 -19 13 C-19 12.01 -19 11.02 -19 10 C-15.65060119 7.97441119 -13.13037449 7.78261013 -9.25 7.875 C-8.26515625 7.89304688 -7.2803125 7.91109375 -6.265625 7.9296875 C-5.14414063 7.96449219 -5.14414063 7.96449219 -4 8 C-3.67 6.68 -3.34 5.36 -3 4 C-2.01 4.33 -1.02 4.66 0 5 C0 3.35 0 1.7 0 0 Z " fill="#313779" transform="translate(124,128)"/>
<path d="M0 0 C2.5 1.375 2.5 1.375 5 3 C5 3.66 5 4.32 5 5 C7.97 5 10.94 5 14 5 C14 5.33 14 5.66 14 6 C11.36 6.33 8.72 6.66 6 7 C5.67 11.95 5.34 16.9 5 22 C2.33333333 22 -0.33333333 22 -3 22 C-3 16.06 -3 10.12 -3 4 C-2.67 4.66 -2.34 5.32 -2 6 C-1.34 4.02 -0.68 2.04 0 0 Z " fill="#1F66A5" transform="translate(67,90)"/>
<path d="M0 0 C1.65 0 3.3 0 5 0 C4.125 4.875 4.125 4.875 3 6 C3.66 6.66 4.32 7.32 5 8 C4.50628906 8.38671875 4.01257812 8.7734375 3.50390625 9.171875 C2.86324219 9.69265625 2.22257812 10.2134375 1.5625 10.75 C0.92441406 11.26046875 0.28632812 11.7709375 -0.37109375 12.296875 C-3.04005554 15.08744416 -2.98995861 17.47784762 -3.0625 21.25 C-3.041875 22.1575 -3.02125 23.065 -3 24 C-4.423125 24.4640625 -4.423125 24.4640625 -5.875 24.9375 C-8.86080408 25.87394742 -8.86080408 25.87394742 -11 27 C-11 23.37 -11 19.74 -11 16 C-9.35 16 -7.7 16 -6 16 C-5.67 15.01 -5.34 14.02 -5 13 C-4.34 13 -3.68 13 -3 13 C-3 10.69 -3 8.38 -3 6 C-2.34 5.67 -1.68 5.34 -1 5 C-0.34444881 2.47266765 -0.34444881 2.47266765 0 0 Z " fill="#2A5294" transform="translate(59,112)"/>
<path d="M0 0 C0.33 0 0.66 0 1 0 C1 2.64 1 5.28 1 8 C1.66 8 2.32 8 3 8 C3.74136918 20.68270851 4.13809004 33.29571603 4 46 C3.01 46.495 3.01 46.495 2 47 C0.32044455 44.06120691 -0.2469052 41.97388452 -0.22705078 38.59863281 C-0.22689972 37.7380426 -0.22674866 36.87745239 -0.22659302 35.99078369 C-0.21627045 35.07085632 -0.20594788 34.15092896 -0.1953125 33.203125 C-0.1924826 32.25435486 -0.18965271 31.30558472 -0.18673706 30.32806396 C-0.17555448 27.30191361 -0.1504533 24.2760607 -0.125 21.25 C-0.11496772 19.19661886 -0.1058423 17.14323308 -0.09765625 15.08984375 C-0.07562141 10.05978146 -0.04110462 5.02994114 0 0 Z " fill="#2D377A" transform="translate(12,136)"/>
<path d="M0 0 C1.62463842 -0.05395478 3.24978541 -0.09277195 4.875 -0.125 C6.23238281 -0.15980469 6.23238281 -0.15980469 7.6171875 -0.1953125 C10 0 10 0 12 2 C-8.87096774 15 -8.87096774 15 -12 15 C-12 12.69 -12 10.38 -12 8 C-8.72724974 8 -6.153368 8.29925156 -3 9 C-3.33 7.02 -3.66 5.04 -4 3 C-2.68 2.67 -1.36 2.34 0 2 C0 1.34 0 0.68 0 0 Z " fill="#313778" transform="translate(164,104)"/>
<path d="M0 0 C0.82304693 2.82860524 1.07866062 5.15567397 0.87890625 8.08984375 C0.83048584 8.8686792 0.78206543 9.64751465 0.73217773 10.44995117 C0.67618408 11.27084229 0.62019043 12.0917334 0.5625 12.9375 C0.0907035 20.64350957 -0.12477862 28.27758995 0 36 C-0.99 35.67 -1.98 35.34 -3 35 C-3 24.44 -3 13.88 -3 3 C-2.01 3 -1.02 3 0 3 C0 2.01 0 1.02 0 0 Z " fill="#0C9ED3" transform="translate(15,45)"/>
<path d="M0 0 C5.4883621 -0.27906926 8.3888663 -0.25491791 13 3 C13.66 3 14.32 3 15 3 C14.67 2.01 14.34 1.02 14 0 C17.3 0 20.6 0 24 0 C20.15382603 3.84617397 17.05982739 5.73298534 11.625 6.4375 C7.12292059 5.89414559 3.8806363 4.25782476 0 2 C0 1.34 0 0.68 0 0 Z " fill="#303576" transform="translate(16,184)"/>
<path d="M0 0 C1.32 0.33 2.64 0.66 4 1 C4.33 2.98 4.66 4.96 5 7 C5.99 7.33 6.98 7.66 8 8 C8 10.31 8 12.62 8 15 C6.25 15.75 6.25 15.75 4 16 C1.875 14.40625 1.875 14.40625 0 12 C-0.390625 8.984375 -0.390625 8.984375 -0.25 5.75 C-0.21390625 4.67234375 -0.1778125 3.5946875 -0.140625 2.484375 C-0.09421875 1.66453125 -0.0478125 0.8446875 0 0 Z " fill="#1288C1" transform="translate(56,64)"/>
<path d="M0 0 C0.33 0 0.66 0 1 0 C1 7.92 1 15.84 1 24 C1.66 24.33 2.32 24.66 3 25 C2.88573491 27.41760876 2.75900339 29.83347218 2.625 32.25 C2.5940625 32.93191406 2.563125 33.61382812 2.53125 34.31640625 C2.31740626 37.98739038 1.98922945 40.86251616 0 44 C-4.05935051 30.9843047 -0.63165161 13.41251709 0 0 Z " fill="#1F5E9C" transform="translate(13,96)"/>
<path d="M0 0 C4.95 0 9.9 0 15 0 C12.18480992 2.81519008 9.89028634 4.35579498 6.4375 6.25 C4.98150391 7.06210938 4.98150391 7.06210938 3.49609375 7.890625 C2.67238281 8.25671875 1.84867188 8.6228125 1 9 C0.34 8.67 -0.32 8.34 -1 8 C-0.67 7.34 -0.34 6.68 0 6 C0 4.02 0 2.04 0 0 Z " fill="#2B3276" transform="translate(136,120)"/>
<path d="M0 0 C1.45823212 -0.0270043 2.91660675 -0.04639787 4.375 -0.0625 C5.18710937 -0.07410156 5.99921875 -0.08570312 6.8359375 -0.09765625 C9 0 9 0 11 1 C11 2.32 11 3.64 11 5 C3.9452954 8.25601751 3.9452954 8.25601751 0 7.1875 C-0.66 6.795625 -1.32 6.40375 -2 6 C-1.34 4.02 -0.68 2.04 0 0 Z " fill="#07C0F0" transform="translate(21,1)"/>
<path d="M0 0 C5.75 4.625 5.75 4.625 8 8 C8.125 10.6875 8.125 10.6875 8 13 C5.36 13 2.72 13 0 13 C0 8.71 0 4.42 0 0 Z " fill="#0D9CD2" transform="translate(48,51)"/>
<path d="M0 0 C4.06225548 0.57823096 6.84762346 1.89117737 10.3125 4.0625 C11.19550781 4.61035156 12.07851562 5.15820312 12.98828125 5.72265625 C13.65214844 6.14417969 14.31601563 6.56570312 15 7 C11.87645029 7.91740621 9.06313562 8.13460306 5.8125 8.125 C4.93207031 8.12757812 4.05164063 8.13015625 3.14453125 8.1328125 C1 8 1 8 0 7 C-0.04092937 4.66702567 -0.04241723 2.33294775 0 0 Z " fill="#16C3F0" transform="translate(112,48)"/>
<path d="M0 0 C0.33 0 0.66 0 1 0 C1 4.62 1 9.24 1 14 C-1.66666667 14 -4.33333333 14 -7 14 C-7 10 -7 10 -5.75 8.6875 C-4.88375 7.8521875 -4.88375 7.8521875 -4 7 C-2.56937361 4.71304885 -1.29584324 2.36826523 0 0 Z " fill="#2B357B" transform="translate(71,98)"/>
<path d="M0 0 C8.72659122 -1.01810231 13.82993743 2.24422245 21 7 C20.01 7.66 19.02 8.32 18 9 C18 8.34 18 7.68 18 7 C16.9275 7.185625 15.855 7.37125 14.75 7.5625 C11.59608454 7.9304568 9.90181508 8.04465343 7 7 C7.66 6.67 8.32 6.34 9 6 C9 4.68 9 3.36 9 2 C6.03 1.67 3.06 1.34 0 1 C0 0.67 0 0.34 0 0 Z " fill="#23C8F1" transform="translate(23,0)"/>
<path d="M0 0 C0.33 0 0.66 0 1 0 C1 2.64 1 5.28 1 8 C1.66 8 2.32 8 3 8 C3 13.28 3 18.56 3 24 C2.34 24 1.68 24 1 24 C0.13036913 21.00293305 -0.11763099 18.35043474 -0.09765625 15.234375 C-0.09443359 14.34492188 -0.09121094 13.45546875 -0.08789062 12.5390625 C-0.07532227 11.15847656 -0.07532227 11.15847656 -0.0625 9.75 C-0.05798828 8.81414062 -0.05347656 7.87828125 -0.04882812 6.9140625 C-0.03706918 4.60930959 -0.02063426 2.30468773 0 0 Z " fill="#274489" transform="translate(12,136)"/>
<path d="M0 0 C2 1 4 2 6 3 C6 4.98 6 6.96 6 9 C1.49197399 7.74194623 -1.4912812 6.09592835 -5 3 C-3.35 2.67 -1.7 2.34 0 2 C0 1.34 0 0.68 0 0 Z " fill="#E7F7FB" transform="translate(154,65)"/>
<path d="M0 0 C0.66 0 1.32 0 2 0 C2.625 1.875 2.625 1.875 3 4 C2.34 4.66 1.68 5.32 1 6 C0.360625 6.804375 -0.27875 7.60875 -0.9375 8.4375 C-3 11 -3 11 -6 14 C-6 11.03 -6 8.06 -6 5 C-4.35 5 -2.7 5 -1 5 C-0.67 3.35 -0.34 1.7 0 0 Z " fill="#294083" transform="translate(46,139)"/>
<path d="M0 0 C0.66 0.33 1.32 0.66 2 1 C1.34 2.32 0.68 3.64 0 5 C1.32 5.33 2.64 5.66 4 6 C2.35 6 0.7 6 -1 6 C-2.07525194 8.65228812 -3.09456151 11.28368454 -4 14 C-4.99 13.67 -5.98 13.34 -7 13 C-6.74126898 8.60157266 -6.43893111 6.50477078 -3.5 3.125 C-2.2625 2.073125 -2.2625 2.073125 -1 1 C-0.67 0.67 -0.34 0.34 0 0 Z " fill="#15B8E4" transform="translate(19,2)"/>
<path d="M0 0 C1.32 0.66 2.64 1.32 4 2 C3.34 2 2.68 2 2 2 C2 2.99 2 3.98 2 5 C2.66 5 3.32 5 4 5 C4 5.66 4 6.32 4 7 C3.34 7 2.68 7 2 7 C2.33 7.99 2.66 8.98 3 10 C-0.37503669 8.8141763 -2.64722731 7.72426311 -5 5 C-3.625 3.5 -3.625 3.5 -2 2 C-1.34 2 -0.68 2 0 2 C0 1.34 0 0.68 0 0 Z " fill="#F2FBFB" transform="translate(60,8)"/>
<path d="M0 0 C1.65 0 3.3 0 5 0 C4.67 1.65 4.34 3.3 4 5 C3.01 5.33 2.02 5.66 1 6 C0.835 6.66 0.67 7.32 0.5 8 C0.335 8.66 0.17 9.32 0 10 C-0.99 10.33 -1.98 10.66 -3 11 C-3 9.35 -3 7.7 -3 6 C-2.34 5.67 -1.68 5.34 -1 5 C-0.34444881 2.47266765 -0.34444881 2.47266765 0 0 Z " fill="#235492" transform="translate(59,112)"/>
<path d="M0 0 C0.66 0 1.32 0 2 0 C3.13480527 3.60993172 3.10015767 6.9842327 3.0625 10.75 C3.05347656 11.92046875 3.04445313 13.0909375 3.03515625 14.296875 C3.02355469 15.18890625 3.01195312 16.0809375 3 17 C2.01 16.67 1.02 16.34 0 16 C0 10.72 0 5.44 0 0 Z " fill="#118DC5" transform="translate(12,64)"/>
<path d="M0 0 C4.00870431 1.37441291 6.95149392 3.03388597 10 6 C11.3125 9.25 11.3125 9.25 12 12 C8.24980832 10.74993611 7.42481772 9.06668123 5 6 C4.0925 5.278125 3.185 4.55625 2.25 3.8125 C1.5075 3.214375 0.765 2.61625 0 2 C0 1.34 0 0.68 0 0 Z " fill="#1AC6F1" transform="translate(168,80)"/>
<path d="M0 0 C2 2 2 2 2.125 5.125 C2.08375 6.07375 2.0425 7.0225 2 8 C1.05125 8.309375 0.1025 8.61875 -0.875 8.9375 C-3.86080408 9.87394742 -3.86080408 9.87394742 -6 11 C-6 10.01 -6 9.02 -6 8 C-5.34 8 -4.68 8 -4 8 C-3.71125 7.236875 -3.4225 6.47375 -3.125 5.6875 C-2 3 -2 3 0 0 Z " fill="#2A357A" transform="translate(54,128)"/>
<path d="M0 0 C5.5 -0.36666667 5.5 -0.36666667 7.875 1.375 C9 3 9 3 9 5 C10.98 5 12.96 5 15 5 C15 5.33 15 5.66 15 6 C8.92671312 6.50610724 5.22771463 5.04157942 0 2 C0 1.34 0 0.68 0 0 Z " fill="#474D88" transform="translate(16,184)"/>
<path d="M0 0 C3.3 1.65 6.6 3.3 10 5 C9.01 5.66 8.02 6.32 7 7 C7 6.34 7 5.68 7 5 C6.401875 5.309375 5.80375 5.61875 5.1875 5.9375 C3 7 3 7 0 8 C0 5.36 0 2.72 0 0 Z " fill="#14C5F0" transform="translate(72,24)"/>
<path d="M0 0 C1.32 0.33 2.64 0.66 4 1 C4.33 2.98 4.66 4.96 5 7 C5.99 7.33 6.98 7.66 8 8 C8 9.32 8 10.64 8 12 C7.34 12 6.68 12 6 12 C6 11.34 6 10.68 6 10 C5.34 10 4.68 10 4 10 C0 3.375 0 3.375 0 0 Z " fill="#0AB9EC" transform="translate(56,64)"/>
<path d="M0 0 C0.33 0 0.66 0 1 0 C1.02712066 1.43739513 1.04645067 2.87493863 1.0625 4.3125 C1.07410156 5.11300781 1.08570313 5.91351563 1.09765625 6.73828125 C1 9 1 9 0 12 C-0.99 12 -1.98 12 -3 12 C-3 9.69 -3 7.38 -3 5 C-2.01 4.67 -1.02 4.34 0 4 C0 2.68 0 1.36 0 0 Z " fill="#0AA9DE" transform="translate(15,36)"/>
<path d="M0 0 C0.99 0.33 1.98 0.66 3 1 C1.68 3.64 0.36 6.28 -1 9 C-1.66 8.67 -2.32 8.34 -3 8 C-3.66 8.66 -4.32 9.32 -5 10 C-5 8.68 -5 7.36 -5 6 C-4.34 6 -3.68 6 -3 6 C-2.87625 5.38125 -2.7525 4.7625 -2.625 4.125 C-2 2 -2 2 0 0 Z " fill="#F0F9F5" transform="translate(14,2)"/>
<path d="M0 0 C7.38461538 -0.49230769 7.38461538 -0.49230769 10.5 2 C10.995 2.66 11.49 3.32 12 4 C10.68 3.67 9.36 3.34 8 3 C7.67 3.66 7.34 4.32 7 5 C3.535 3.02 3.535 3.02 0 1 C0 0.67 0 0.34 0 0 Z " fill="#F0FAFA" transform="translate(32,0)"/>
<path d="M0 0 C0.99 0.33 1.98 0.66 3 1 C3 3.31 3 5.62 3 8 C1.68 8 0.36 8 -1 8 C-2 5 -2 5 -2 2 C-1.34 1.34 -0.68 0.68 0 0 Z " fill="#2A3177" transform="translate(107,136)"/>
<path d="M0 0 C2.31 0.33 4.62 0.66 7 1 C7 1.66 7 2.32 7 3 C7.99 3.33 8.98 3.66 10 4 C10 4.99 10 5.98 10 7 C6.00118212 6.38479725 3.19641774 4.39731331 0 2 C0 1.34 0 0.68 0 0 Z " fill="#E3F6F9" transform="translate(105,41)"/>
<path d="M0 0 C-5.94 3.465 -5.94 3.465 -12 7 C-12 6.01 -12 5.02 -12 4 C-7.84284232 0.17990916 -5.66657642 -1.4166441 0 0 Z " fill="#3C407B" transform="translate(151,121)"/>
<path d="M0 0 C2 0 2 0 3.6875 1.1875 C5 3 5 3 4.6875 5.6875 C4.460625 6.450625 4.23375 7.21375 4 8 C2.68 7.67 1.36 7.34 0 7 C0 4.69 0 2.38 0 0 Z " fill="#06C0F0" transform="translate(112,48)"/>
<path d="M0 0 C1.60781893 0.7631861 3.21113138 1.53587058 4.8125 2.3125 C5.70582031 2.74175781 6.59914063 3.17101562 7.51953125 3.61328125 C9.78931933 4.88221789 11.29248171 6.06556898 13 8 C8.14036821 7.39254603 4.2594482 5.27241033 0 3 C0 2.01 0 1.02 0 0 Z " fill="#20C8EC" transform="translate(48,10)"/>
<path d="M0 0 C1.98 0 3.96 0 6 0 C6 0.99 6 1.98 6 3 C7.65 2.67 9.3 2.34 11 2 C10.67 2.99 10.34 3.98 10 5 C10.99 5.33 11.98 5.66 13 6 C12.01 6.495 12.01 6.495 11 7 C8.3984375 5.78515625 8.3984375 5.78515625 5.375 4.0625 C4.37210938 3.49660156 3.36921875 2.93070313 2.3359375 2.34765625 C1.56507813 1.90292969 0.79421875 1.45820312 0 1 C0 0.67 0 0.34 0 0 Z " fill="#E3F5FD" transform="translate(130,57)"/>
<path d="M0 0 C0.66 0.33 1.32 0.66 2 1 C-0.33333333 3.33333333 -2.66666667 5.66666667 -5 8 C-5 7.34 -5 6.68 -5 6 C-5.99 6.33 -6.98 6.66 -8 7 C-8.33 6.34 -8.66 5.68 -9 5 C-7.54735962 4.1361871 -6.0876837 3.28419546 -4.625 2.4375 C-3.40683594 1.72400391 -3.40683594 1.72400391 -2.1640625 0.99609375 C-1.44992188 0.66738281 -0.73578125 0.33867187 0 0 Z " fill="#E6EAF1" transform="translate(68,168)"/>
<path d="M0 0 C1.32 0 2.64 0 4 0 C3.67 2.31 3.34 4.62 3 7 C2.01 7.33 1.02 7.66 0 8 C0 5.36 0 2.72 0 0 Z " fill="#323A7A" transform="translate(176,95)"/>
<path d="M0 0 C2.31 0 4.62 0 7 0 C6.01 0.495 6.01 0.495 5 1 C5.33 3.31 5.66 5.62 6 8 C3.69 6.02 1.38 4.04 -1 2 C-0.67 1.34 -0.34 0.68 0 0 Z " fill="#E8F8F7" transform="translate(173,80)"/>
<path d="M0 0 C3.21852831 0.63065757 5.50801069 1.78020695 8.25 3.5625 C8.95640625 4.01753906 9.6628125 4.47257812 10.390625 4.94140625 C11.18726562 5.46541016 11.18726562 5.46541016 12 6 C11.34 6.66 10.68 7.32 10 8 C9.0925 7.38125 8.185 6.7625 7.25 6.125 C4.85051183 4.55610389 2.59038388 3.19556179 0 2 C0 1.34 0 0.68 0 0 Z " fill="#23C5F2" transform="translate(85,32)"/>
<path d="M0 0 C2.97 0 5.94 0 9 0 C6.31158141 2.25245881 4.35358125 3.88213958 1 5 C0.67 3.35 0.34 1.7 0 0 Z " fill="#3C427C" transform="translate(101,144)"/>
<path d="M0 0 C0.33 1.32 0.66 2.64 1 4 C2.9837767 5.28436734 2.9837767 5.28436734 5 6 C3.625 7.5 3.625 7.5 2 9 C1.34 9 0.68 9 0 9 C0 6.03 0 3.06 0 0 Z M2 2 C2.66 2 3.32 2 4 2 C3.67 2.66 3.34 3.32 3 4 C2.67 3.34 2.34 2.68 2 2 Z " fill="#04C1F3" transform="translate(96,39)"/>
<path d="M0 0 C5.75 1.875 5.75 1.875 8 3 C7.67 3.99 7.34 4.98 7 6 C3.62496331 4.8141763 1.35277269 3.72426311 -1 1 C-0.67 0.67 -0.34 0.34 0 0 Z " fill="#E2F6F9" transform="translate(64,17)"/>
<path d="M0 0 C2 3 2 3 2 6 C2.66 6 3.32 6 4 6 C4.33 7.65 4.66 9.3 5 11 C4.34 11 3.68 11 3 11 C-1.06153846 4.6 -1.06153846 4.6 -0.75 1.5625 C-0.5025 1.046875 -0.255 0.53125 0 0 Z " fill="#0AB4E6" transform="translate(43,40)"/>
<path d="M0 0 C3.3 1.65 6.6 3.3 10 5 C10 5.33 10 5.66 10 6 C7.03 6 4.06 6 1 6 C0.67 4.02 0.34 2.04 0 0 Z " fill="#16C2ED" transform="translate(62,18)"/>
<path d="M0 0 C-3.12432397 2.52349243 -6.38060496 4.27256146 -10 6 C-10.33 5.01 -10.66 4.02 -11 3 C-7.14243493 0.84694043 -4.44870215 -0.39253254 0 0 Z " fill="#3B4280" transform="translate(72,166)"/>
<path d="M0 0 C2.33944736 0.28730055 4.6739143 0.61936779 7 1 C6.34 1.66 5.68 2.32 5 3 C4.01 3 3.02 3 2 3 C2 3.99 2 4.98 2 6 C0 5 0 5 -0.6875 3 C-0.790625 2.34 -0.89375 1.68 -1 1 C-0.67 0.67 -0.34 0.34 0 0 Z " fill="#293075" transform="translate(161,106)"/>
<path d="M0 0 C0.33 0 0.66 0 1 0 C1 1.98 1 3.96 1 6 C0.34 6 -0.32 6 -1 6 C-1 6.66 -1 7.32 -1 8 C-1.99 8.33 -2.98 8.66 -4 9 C-2.94124926 5.59687262 -1.99097846 2.98646769 0 0 Z " fill="#273E80" transform="translate(71,98)"/>
<path d="M0 0 C3.08089673 2.77280706 4.68775452 5.06326356 6 9 C4.68 8.67 3.36 8.34 2 8 C2 6.68 2 5.36 2 4 C1.01 4 0.02 4 -1 4 C-0.67 2.68 -0.34 1.36 0 0 Z " fill="#1A81BD" transform="translate(66,84)"/>
<path d="M0 0 C2.31 0 4.62 0 7 0 C4.63707344 2.52588702 3.33537489 3.88820837 0 5 C0 3.35 0 1.7 0 0 Z " fill="#393C7E" transform="translate(88,152)"/>
<path d="M0 0 C1.32 0 2.64 0 4 0 C3.34 2.64 2.68 5.28 2 8 C1.34 8 0.68 8 0 8 C0 5.36 0 2.72 0 0 Z " fill="#215597" transform="translate(48,128)"/>
<path d="M0 0 C-2.05233685 2.2477975 -3.00667261 3.0022242 -6 4 C-6.33 2.68 -6.66 1.36 -7 0 C-4.3333581 -1.33332095 -2.83319697 -0.67102033 0 0 Z " fill="#353D7C" transform="translate(52,177)"/>
<path d="M0 0 C1.32 0.66 2.64 1.32 4 2 C1.36 3.98 -1.28 5.96 -4 8 C-3.67 6.68 -3.34 5.36 -3 4 C-2.34 4 -1.68 4 -1 4 C-0.67 2.68 -0.34 1.36 0 0 Z " fill="#2C367C" transform="translate(60,118)"/>
<path d="M0 0 C0.99 0 1.98 0 3 0 C5.1519437 3.22791555 5.20086443 4.28400809 5 8 C2.20127563 5.47211993 0.54226981 3.79588866 0 0 Z " fill="#0ABCED" transform="translate(51,56)"/>
<path d="M0 0 C0.99 0.33 1.98 0.66 3 1 C3 2.65 3 4.3 3 6 C2.01 6.33 1.02 6.66 0 7 C0 4.69 0 2.38 0 0 Z " fill="#2A2E76" transform="translate(152,112)"/>
<path d="M0 0 C1.32 0.66 2.64 1.32 4 2 C1.525 3.485 1.525 3.485 -1 5 C-1 4.34 -1 3.68 -1 3 C-1.66 2.67 -2.32 2.34 -3 2 C-2.01 1.34 -1.02 0.68 0 0 Z " fill="#343B7B" transform="translate(172,104)"/>
</svg>
